<?xml version="1.0" encoding="utf-8"?>
<!-- Generator: Adobe Illustrator 28.0.0, SVG Export Plug-In . SVG Version: 6.00 Build 0)  -->
<svg version="1.1" id="Layer_1" xmlns="http://www.w3.org/2000/svg" xmlns:xlink="http://www.w3.org/1999/xlink" x="0px" y="0px"
	 viewBox="0 0 235.95 89.85" style="enable-background:new 0 0 235.95 89.85;" xml:space="preserve">
<style type="text/css">
	.st0{fill:#FFFFFF;}
	.st1{fill:#F8CB46;}
</style>
<g>
	<g>
		<g>
			<path class="st0" d="M21.96,29.74h0.33L32.75,3.4H44v1.77L24.58,49.68h-4.97L0,5.16V3.4h11.24L21.96,29.74z M22.16,41.64H22.1
				L7.32,7.78H6.47l15.49,35.3h0.33l15.23-35.3h-0.78L22.16,41.64z"/>
			<path class="st0" d="M70.72,38.9v10.26H47.51V38.9h5.82V13.6h-5.36V3.4h22.29v10.2H64.9v25.3H70.72z M51.9,43.73v0.65h14.38
				v-0.65h-6.8V8.89h6.28V8.24H52.48v0.65h6.34v34.84H51.9z"/>
			<path class="st0" d="M195.04,8.37c0,2.09-0.26,3.66-2.55,8.56l-4.58,9.74h-9.15l3.27-11.05c-2.62-1.24-4.25-3.79-4.25-7.25
				c0-5.1,3.66-8.37,8.63-8.37S195.04,3.27,195.04,8.37z"/>
			<path class="st0" d="M224.58,35.5c0-3.21-3.79-3.73-8.37-3.99c-9.94-0.72-16.48-4.12-16.61-14.05
				c-0.39-19.74,35.17-19.74,34.91,0c-4.12,0-7.13,0-11.11,0c0-6.08-12.29-5.56-12.68-0.13c-0.26,3.47,3.14,4.18,7.25,4.64
				c9.09,0.98,17.98,2.16,17.98,13.6c0,19.22-37.26,19.74-37-0.39c3.92,0,7.32,0,11.31,0C210.26,40.99,224.58,40.86,224.58,35.5z
				 M228.31,13.27c-4.9-9.22-23.8-6.87-23.53,4.18c0.19,7.84,5.69,9.02,12.35,9.54c6.34,0.46,12.68,0.59,12.68,8.5
				c0,10.13-18.44,12.16-23.6,3.85h-0.78c4.71,9.35,25.1,7.26,25.1-3.85c0-8.11-6.6-8.7-13.27-9.22c-6.41-0.46-11.7-1.51-11.7-8.83
				c-0.07-10.27,17-12.36,21.9-4.18H228.31z"/>
		</g>
		<g>
			<path class="st0" d="M90.46,26.67l18,17.6c0.32-0.05,0.63-0.09,0.93-0.09c0.34,0,0.67,0.03,0.98,0.1
				c1.63,0.35,2.75,1.53,2.97,3.13c0.07,0.51,0.05,1.04-0.05,1.57l0.25,0.24h4.18V3.4c-3.99,0-7.98,0-11.96,0v22.42L82.61,3.2h-4.25
				v45.96c3.99,0,8.04,0,12.09,0V26.67z M84.71,44.65h-0.78V12.61h0.72c4.38,4.25,8.76,8.57,13.01,12.88
				c4.64,4.31,9.15,8.82,13.73,13.34V7.84h0.72v32.1h-0.52c-4.51-4.38-8.89-8.63-13.27-12.94c-4.44-4.38-9.02-8.89-13.6-13.27V44.65
				z"/>
			<path class="st1" d="M71.75,69.91c-0.89-3.15,2.69-5.05,6.37-6.61c3.67-1.61,10.18-3.56,16.27-5.71
				c2.08-3.22,4.38-5.63,6.47-7.36c0,0,5.98-5.1,9.16-4.41c3.19,0.69,2.76,6.07-7.12,11.41c-1.58,0.81-3.36,1.62-5.34,2.44
				c-1.71,3.07-3.31,6.87-4.41,11.52c-3.96,16.55,6.81,15.44,8.73,15.11c2.41-0.43,11.32-3.37,15.74-20.66c0,0,0.1-0.39,0.42-0.17
				c0.29,0.12,0.61,0.34,0.6,0.65c0,0-2,15.11-12.37,21.62c-7.84,4.91-22.55,2.13-17.23-17.8c0.79-3.01,1.79-5.67,2.93-8
				c-8.52,3.4-17.09,6.82-15.88,10.54c0.14,0.48-0.27,0.33-0.27,0.33C74.8,72.65,72.38,71.94,71.75,69.91z M73.03,69.7
				c-0.03-0.3-0.05-0.55,0.04-0.78l-0.01-0.05c0.05-0.01,0.05-0.01,0.03-0.06l0.03-0.06c0.03-0.06,0.07-0.12,0.05-0.17
				c0.03-0.06,0.07-0.12,0.1-0.18c0.03-0.06,0.07-0.12,0.1-0.18c0.29-0.44,0.7-0.82,1.12-1.14c0.47-0.34,0.95-0.63,1.44-0.93
				c0.5-0.24,1-0.49,1.54-0.75c1.04-0.5,2.11-0.91,3.22-1.38c1.12-0.42,2.24-0.84,3.37-1.21c2.25-0.79,4.55-1.6,6.76-2.34
				c1.08-0.36,2.15-0.77,3.24-1.13c0.29-0.08,0.51-0.2,0.8-0.28c0.23-0.11,0.51-0.2,0.8-0.28c0.51-0.2,1.02-0.39,1.49-0.58
				c0.14-0.04,0.29-0.08,0.37-0.16c0.14-0.04,0.29-0.08,0.37-0.16c0.29-0.08,0.51-0.2,0.75-0.26c0.23-0.12,0.46-0.18,0.69-0.3
				c0.27-0.13,0.51-0.2,0.74-0.31c0.23-0.12,0.42-0.17,0.64-0.29c0.14-0.04,0.23-0.12,0.37-0.16c0.05-0.01,0.1-0.03,0.13-0.09
				c0.05-0.01,0.14-0.04,0.19-0.05c0.4-0.22,0.87-0.4,1.27-0.62c1.57-0.81,2.99-1.63,4.13-2.36c1.13-0.74,1.9-1.47,2.48-1.99
				c0.03-0.06,0.12-0.14,0.15-0.2l0.05-0.01c-0.01-0.05,0.03-0.06,0.03-0.06c0.05-0.01,0.03-0.06,0.08-0.08
				c0.03-0.06,0.07-0.12,0.1-0.18c0.05-0.01,0.08-0.08,0.12-0.14c0.08-0.08,0.12-0.14,0.16-0.15c-0.01-0.05-0.01-0.05-0.01-0.05
				c0.05-0.01,0.03-0.06,0.03-0.06c-0.03,0.06-0.07,0.12-0.12,0.14c-0.03,0.06-0.02,0.11-0.07,0.12l-0.12,0.14
				c-0.05,0.01-0.03,0.06-0.08,0.07l-0.12,0.14c-0.05,0.01-0.08,0.08-0.08,0.08c-0.08,0.07-0.16,0.15-0.25,0.22
				c-0.05,0.01-0.03,0.06-0.08,0.07l-0.12,0.14c-0.1,0.03-0.18,0.1-0.21,0.16l-0.13,0.09c-0.05,0.01-0.08,0.07-0.13,0.09
				c-0.08,0.08-0.12,0.14-0.21,0.16c-0.08,0.07-0.16,0.15-0.26,0.18c-0.03,0.06-0.12,0.14-0.21,0.16c-0.18,0.1-0.29,0.24-0.47,0.34
				c-0.1,0.03-0.18,0.1-0.23,0.12c-0.08,0.08-0.18,0.1-0.26,0.18c-0.18,0.1-0.31,0.19-0.48,0.29c-1.27,0.77-2.59,1.41-3.92,1.99
				c-0.32,0.14-0.64,0.29-0.96,0.43c-0.19,0.05-0.32,0.14-0.51,0.2c-0.13,0.09-0.32,0.14-0.46,0.18c-0.32,0.14-0.64,0.28-0.96,0.43
				c-0.09,0.03-0.19,0.05-0.24,0.07l-0.13,0.09l-0.1,0.03c-0.19,0.05-0.33,0.09-0.51,0.2c-0.33,0.09-0.61,0.22-0.94,0.32
				c-0.18,0.1-0.32,0.14-0.46,0.18c-0.19,0.05-0.33,0.09-0.46,0.18c-0.67,0.19-1.27,0.41-1.88,0.64c-4.9,1.65-9.23,3.09-12.75,4.5
				c-1.76,0.71-3.33,1.36-4.63,2.04c-1.3,0.68-2.4,1.35-3.17,2.09c-0.21,0.16-0.38,0.31-0.53,0.51c-0.16,0.15-0.27,0.33-0.37,0.52
				c-0.22,0.32-0.34,0.61-0.37,0.88c-0.08,0.28-0.02,0.47-0.03,0.63c0.01,0.05,0.03,0.1,0.04,0.14L73.03,69.7z M89.73,72.38
				c-0.15,0.56-0.31,1.07-0.42,1.61c-0.1,0.54-0.22,1.04-0.27,1.57c-0.12,1.01-0.2,2.02-0.15,2.93c0.02,0.97,0.11,1.83,0.29,2.65
				c0.17,0.78,0.39,1.54,0.67,2.18c0.09,0.13,0.19,0.31,0.23,0.45c0.09,0.13,0.18,0.26,0.27,0.39c0.13,0.27,0.31,0.53,0.47,0.74
				c0.37,0.41,0.67,0.74,0.99,0.96c0.27,0.23,0.52,0.37,0.7,0.47c0.18,0.1,0.25,0.14,0.25,0.14c-0.27-0.23-0.56-0.51-0.8-0.81
				c-0.29-0.28-0.49-0.64-0.74-0.98c-0.39-0.66-0.72-1.45-1-2.24c-0.22-0.76-0.4-1.59-0.53-2.43c-0.07-0.8-0.15-1.61-0.19-2.32
				c-0.07-1.53,0.02-2.84,0.11-3.79c0.02-0.47,0.07-0.85,0.1-1.11c0.01-0.16,0.04-0.22,0.01-0.31
				C89.74,72.43,89.73,72.38,89.73,72.38z M100.47,55.35c5.04-2.05,8.86-4.22,8.89-6.29c0,0,0-1.08-1.23-0.53
				C107.43,48.83,104.02,50.79,100.47,55.35z"/>
			<path class="st1" d="M123.23,78.64c-4.89,1.29-6.92-3.86-6.88-7.89c0.08-4.82,3.07-10.98,9.39-11.43c0,0,0.9-0.1,1.91,0.18
				c1.14,0.4,2.47,1.26,2.74,3.29c0.29,1.93-1.49,2.74-2.14,2.98l-0.05,0.01c-0.19,0.05-0.18-0.1-0.2-0.15
				c0.14-0.76,0.36-3.09-0.66-4.3c-0.25-0.34-0.58-0.61-1.04-0.74c-2.48-0.74-5.15,4.2-5.62,9.07c-0.46,4.93,0.92,7.58,2.63,7.45
				c1.37-0.08,3.04-3.08,3.72-5.96c0.33-1.18,0.58-2.69,0.72-3.82c0,0,0.04-0.22,0.26-0.18c1.32,0.3,3.47,1.13,3.23,3.21
				c-0.06,0.33-0.14,0.61-0.16,0.87c-0.46,3.28,0.57,3.09,0.57,3.09c2.7-0.3,4.79-10.38,5.15-14c0.04-0.22,0.23-0.63,0.68-0.71
				c0,0,0.54-0.1,0.48,0.59c-1.42,14.43-5.22,15.77-6.9,16.19c-1.97,0.51-2.87-0.68-3.19-2.7
				C127.09,75.74,125.72,77.98,123.23,78.64z M118.44,66.7c0.12-0.29,0.31-0.55,0.44-0.8c0.14-0.24,0.27-0.49,0.46-0.75
				c0.55-0.98,1.1-1.76,1.6-2.36c0.27-0.33,0.5-0.6,0.74-0.83c0.03-0.06,0.13-0.09,0.16-0.15c0.05-0.01,0.03-0.06,0.08-0.07
				c0,0,0.03-0.06,0.08-0.08c0.08-0.08,0.15-0.2,0.29-0.24c0.08-0.08,0.12-0.14,0.2-0.21c0.08-0.07,0.13-0.09,0.16-0.15
				c0.08-0.08,0.18-0.1,0.18-0.1c-0.48,0.14-0.99,0.33-1.41,0.66c-0.44,0.28-0.85,0.65-1.21,1.01c-0.4,0.42-0.73,0.88-1.02,1.32
				c-0.29,0.44-0.51,0.92-0.7,1.33c-0.37,0.88-0.66,1.68-0.79,2.29c-0.08,0.28-0.12,0.5-0.12,0.65c-0.03,0.06-0.01,0.16-0.05,0.17
				c0.01,0.05,0.03,0.1,0.03,0.1c0.11-0.34,0.28-0.65,0.4-0.94C118.13,67.25,118.32,66.99,118.44,66.7z"/>
			<path class="st1" d="M135.41,80.13c-1.38-7.4,1.58-21.13,1.58-21.13s2.22-15.43,8.22-16.26c0,0,2.12-0.34,3,2.04
				c0.01,0.05,0.05,0.19-0.03,0.27c-0.05,0.01-0.11-0.02-0.16-0.01c-1.01-0.28-4.11,0.03-6.71,14.13c0,0-0.09,0.23-0.17,0.67
				c0.05-0.01,0.06,0.04,0.06,0.04c2.85-0.5,5.59-1.74,7.88-3.48c0.18-0.1,0.64-0.28,1.04,0.02c0,0,0.39,0.3-0.16,0.71
				c-2.33,1.8-5.11,3.26-8.02,3.88c2.39,3.86,5.19,11.37,4.27,17.2C144.94,86.09,136.74,87.54,135.41,80.13z M138.65,56.31
				c0.4-1.14,0.75-2.28,1.12-3.31c0.42-1.05,0.77-2.02,1.12-2.95c0.42-0.89,0.79-1.77,1.15-2.49c0.4-0.78,0.77-1.46,1.18-2.04
				c0.4-0.58,0.83-1.06,1.27-1.34c0.21-0.16,0.44-0.28,0.66-0.39c0,0,0.05-0.01,0.1-0.03l0.05-0.01c0.05-0.01,0.1-0.03,0.14-0.04
				c0.11,0.02,0.2-0.01,0.31,0.01c0.2-0.01,0.36,0,0.53,0.06c0.12,0.07,0.23,0.09,0.35,0.16c0.01,0.05,0.06,0.03,0.12,0.07
				c0,0,0.01,0.05,0.06,0.04c0.01,0.05,0.08,0.08,0.08,0.08c-0.25-0.34-0.68-0.58-1.16-0.65c-0.06-0.03-0.11-0.02-0.17-0.05
				c-0.05,0.01-0.05,0.01-0.1,0.03l-0.05,0.01l-0.06-0.04c-0.05,0.01-0.1,0.03-0.14,0.04c-0.09,0.03-0.14,0.04-0.2,0.01
				c-0.24,0.07-0.46,0.18-0.69,0.3c-0.4,0.22-0.79,0.48-1.15,0.84c-0.15,0.2-0.32,0.35-0.46,0.54c-0.15,0.2-0.3,0.4-0.4,0.58
				c-0.3,0.39-0.54,0.82-0.74,1.19c-0.24,0.43-0.43,0.85-0.62,1.26c-0.37,0.88-0.66,1.68-0.94,2.49c-0.48,1.58-0.81,2.96-1.03,4
				c-0.12,0.5-0.2,0.93-0.23,1.2C138.65,56.16,138.65,56.31,138.65,56.31z M140.95,82.94c3.89,1.16,2.87-14.95-0.19-20.99
				C139.66,68.04,137.56,81.89,140.95,82.94z"/>
			<path class="st1" d="M148.8,69c-1.63-1.55-2.33-4.39-2.3-6.82c0.06-4.14,2.3-9.32,6.99-10.96c0,0,4.86-2.31,5.22,2.95
				c0,0,0.17,3.3-1.76,5.61c-2.01,2.37-4.89,3.66-6.17,4.07c0.15,1.81,0.66,3.06,1.34,3.8c0,0,1.22,1.56,3.93,0.22
				c0,0,2.53-1.44,4.01-4.95c1.35-3.06,2.6-7.91,3.14-10.18c0.05-0.17,0.29-0.6,0.75-0.62c0,0,0.52,0.01,0.35,0.67
				c-1.13,5.27-2.18,8.66-3.16,10.85c0,0-1.87,4.86-6.61,6.31C150.66,71,148.8,69,148.8,69z M148.03,59.22
				c0.16-0.35,0.32-0.71,0.49-1.01c0.12-0.29,0.29-0.6,0.48-0.86c0.17-0.31,0.35-0.57,0.54-0.82c0.03-0.06,0.07-0.12,0.1-0.18
				c0.03-0.06,0.08-0.08,0.07-0.12c0.05-0.01,0.03-0.06,0.08-0.07c0.03-0.06,0.07-0.12,0.15-0.2c0.03-0.06,0.07-0.12,0.1-0.18
				c0.38-0.47,0.72-0.92,1.03-1.27c0.35-0.41,0.66-0.76,0.99-1.05c0.61-0.59,1.15-1.05,1.53-1.31c0.21-0.16,0.34-0.25,0.47-0.34
				c0.08-0.08,0.12-0.14,0.12-0.14c-0.48,0.14-0.99,0.33-1.47,0.62c-0.5,0.24-0.97,0.59-1.43,0.97c-0.41,0.37-0.8,0.8-1.19,1.27
				c-0.33,0.46-0.62,0.9-0.91,1.34c-0.46,0.91-0.79,1.77-0.97,2.39c-0.08,0.28-0.1,0.54-0.16,0.71c-0.03,0.06-0.01,0.16-0.05,0.17
				C148.02,59.17,148.03,59.22,148.03,59.22z M154,52.98c-1.56,1.58-2.84,4.88-3.16,8.12c-0.07,0.48-0.06,1.25-0.04,1.66
				c5.93-3.64,5.58-8.13,5.46-8.92c-0.01-0.05-0.03-0.1,0.01-0.16c-0.07-0.44-0.23-0.81-0.35-1.04c-0.1-0.18-0.14-0.32-0.27-0.39
				c-0.01-0.05-0.01-0.05-0.01-0.05c-0.07-0.08-0.18-0.1-0.29-0.12c-0.05,0.01-0.14,0.04-0.24,0.07
				C154.58,52.3,154.16,52.83,154,52.98z"/>
		</g>
	</g>
	<g>
		<path class="st0" d="M187.74,62.76l-1.47-2.62h-0.72v2.62h-1.78v-7.14h2.82c0.75,0,1.43,0.12,1.9,0.47
			c0.48,0.35,0.84,0.93,0.84,1.72c0,0.93-0.45,1.65-1.35,2.02l1.78,2.92H187.74z M187.21,57.17c-0.2-0.13-0.44-0.19-0.75-0.19h-0.91
			v1.85h0.91c0.31,0,0.55-0.06,0.75-0.19c0.2-0.16,0.34-0.42,0.34-0.74C187.55,57.58,187.42,57.32,187.21,57.17z"/>
		<path class="st0" d="M190.53,62.76v-7.14h4.81v1.38h-3.03v1.36h2.82v1.4h-2.82v1.56h3.15v1.43H190.53z"/>
		<path class="st0" d="M200.97,62.76l-2.73-4.61v4.61h-1.69v-7.14h1.85l2.61,4.36v-4.36h1.67v7.14H200.97z"/>
		<path class="st0" d="M205.93,57.01v1.61h2.63v1.42h-2.63v2.73h-1.78v-7.14h4.64v1.38H205.93z"/>
		<path class="st0" d="M213.74,62.76l-1.47-2.62h-0.72v2.62h-1.78v-7.14h2.82c0.75,0,1.43,0.12,1.9,0.47
			c0.48,0.35,0.84,0.93,0.84,1.72c0,0.93-0.45,1.65-1.35,2.02l1.78,2.92H213.74z M213.21,57.17c-0.2-0.13-0.44-0.19-0.75-0.19h-0.91
			v1.85h0.91c0.31,0,0.55-0.06,0.75-0.19c0.2-0.16,0.34-0.42,0.34-0.74C213.55,57.58,213.41,57.32,213.21,57.17z"/>
		<path class="st0" d="M216.52,62.76v-7.14h4.81v1.38h-3.03v1.36h2.82v1.4h-2.82v1.56h3.15v1.43H216.52z"/>
		<path class="st0" d="M230.04,62.76h-1.93l-1.21-5l-1.2,5h-1.93l-1.83-7.14h1.82l1.09,5.05l1.16-5.05h1.81l1.16,5.05l1.09-5.05
			h1.82L230.04,62.76z"/>
	</g>
</g>
<g>
	<path class="st0" d="M126.54,26.35c0,10.52,5.17,17.55,12.08,21.08c0.83-1.79,1.86-3.43,3.11-4.59c-5.37-2.69-9.43-8.19-9.43-16.5
		c0-24.52,35.5-24.58,35.5,0c0,12.4-9.04,18.54-17.99,18.43c0.04,0.58-0.15,1.08-0.55,1.44l-0.27,0.25l-0.57,0.16l-0.19,0
		l-0.19,0.05l-0.43-0.12c0.01,0-0.91,0.22-2.13,3.16c2.22,0.4,4.49,0.5,6.74,0.31c0.23-0.1,0.46-0.2,0.7-0.28
		c0.34-0.15,1.51-0.62,2.82-0.62c0.35,0,0.69,0.04,1.01,0.1c9.11-2.47,16.74-10.1,16.74-22.88C173.47-5.3,126.54-5.3,126.54,26.35z"
		/>
	<path class="st0" d="M167.13,26.35c0-23.41-34.19-23.86-34.19,0c0,8.2,4.02,13.53,9.29,16.06c0.83-0.65,1.74-1.09,2.75-1.23
		c0,0,0,0,0,0c0,0,0.19-0.03,0.5-0.03c1.87,0,3.41,1.11,4.15,2.97C158.32,44.24,167.13,38.26,167.13,26.35z M138.56,26.35
		c0-16.48,22.95-16.48,22.95,0C161.51,42.95,138.56,42.95,138.56,26.35z"/>
</g>
</svg>
